<svg xmlns="http://www.w3.org/2000/svg" viewBox="0 0 4500 3797" width="100" height="85">
  <style>
    path {
      fill: currentColor;
    }
    @media (prefers-color-scheme: dark) {
      path {
        fill: white;
      }
    }
    @media (prefers-color-scheme: light) {
      path {
        fill: #121212;
      }
    }
  </style>
  <g>
    <path d="M1376.63,3428.23c44.534,0 80.69,36.157 80.69,80.691c0,44.534 -36.156,80.69 -80.69,80.69l-1075.13,-0l0,-3383.21l1075.13,0c44.534,0 80.69,36.156 80.69,80.69c0,44.534 -36.156,80.69 -80.69,80.69l-913.753,0l0,3060.45l913.753,0Zm1746.8,-3060.45c-44.534,0 -80.69,-36.156 -80.69,-80.69c-0,-44.534 36.156,-80.69 80.69,-80.69l1075.07,0l-0,3383.21l-1075.07,-0c-44.534,-0 -80.69,-36.156 -80.69,-80.69c-0,-44.534 36.156,-80.691 80.69,-80.691l913.688,0.001l-0,-3060.45l-913.688,0Z" />
    <path d="M2303.04,2563.57c-17.642,-1.098 -35.321,-1.687 -53.039,-1.687l-0,-1.506c17.952,-0 35.652,1.085 53.039,3.193Zm1293.88,-456.758c27.665,-88.44 37.694,-181.7 26.852,-270.325c-37.644,-307.748 -340.112,-502.777 -628.177,-438.998l-88.645,-51.012l29.24,-88.728c379.218,-100.711 786.632,154.117 836.346,560.54c13.686,111.872 0.14,229.572 -36.134,340.755l-52.004,-90.083l-87.478,37.851Zm-697.101,-677.984l-2.052,0.907c-153.063,67.988 -272.649,182.1 -387.413,303.352l-1.153,1.118c-145.778,141.361 -281.03,296.232 -420.226,444.121l-0.002,0.002c-23.322,24.775 -47.089,49.198 -71.423,73.016l-100.199,-8.609l3.197,-106.091c20.139,-19.991 39.87,-40.407 59.295,-61.042c140.384,-149.152 276.903,-305.234 423.867,-447.869c126.954,-134.027 262.318,-259.057 433.217,-334.968c3.428,-1.522 6.861,-3.013 10.3,-4.473l-30.547,92.694l83.139,47.842Zm-956.458,891.351c-84.491,73.901 -176.468,138.464 -280.284,184.576c-303.995,135.032 -649.68,19.645 -825.197,-234.197l25.373,-99.703l96.64,13.027c135.589,198.691 405.42,289.143 642.345,183.903c89.373,-39.696 168.397,-95.397 241.168,-158.989l-3.09,102.53l103.045,8.853Zm-1159.09,-142.795c-28.491,-60.692 -48.112,-127.106 -56.802,-198.153c-35.706,-291.876 113.954,-623.423 368.979,-775.401c66.024,-39.344 131.926,-64.911 197.824,-80.048l90.711,67.052l-47.045,76.908c-54.925,11.571 -109.829,32.097 -164.768,64.835c-206.425,123.017 -325.839,392.201 -296.937,628.456c6.149,50.266 19.362,97.525 38.424,141.14l-107.556,-14.498l-22.83,89.709Zm1465.73,-791.876l0,0.002c-196.037,0 -387.973,-65.951 -577.902,-104.961c-79.948,-16.422 -159.612,-27.881 -239.163,-24.511l51.787,-84.66l-85.725,-63.365c100.804,-7.684 201.747,4.877 303.255,25.727c26.278,5.397 52.586,11.387 78.935,17.683c-73.988,-98.18 -117.869,-220.302 -117.869,-352.592c0,-323.795 262.883,-586.677 586.681,-586.677c323.798,0 586.681,262.882 586.681,586.677c0,323.796 -262.882,586.677 -586.68,586.677Zm436.806,-586.677c0,-241.078 -195.726,-436.803 -436.807,-436.803c-241.08,-0 -436.807,195.725 -436.807,436.803c-0,241.079 195.727,436.803 436.807,436.803c241.081,0 436.807,-195.724 436.807,-436.803Zm33.385,1847.6c73.154,97.864 116.489,219.288 116.489,350.754c0,323.795 -262.883,586.676 -586.681,586.676c-323.798,0 -586.681,-262.881 -586.681,-586.676c0,-323.796 262.883,-586.677 586.681,-586.677c23.873,-0 47.414,1.429 70.544,4.206c171.623,12.772 340.268,67.943 507.359,102.262c167.03,34.308 332.82,46.956 498.931,-52.028c99.443,-59.262 178.693,-152.445 230.897,-259.528l95.149,-41.17l48.716,84.387c-64.599,142.461 -167.52,267.277 -298.04,345.058c-201.944,120.337 -402.746,111.798 -605.807,70.09c-25.819,-5.303 -51.669,-11.179 -77.557,-17.354Zm-470.191,-86.049c-241.081,-0 -436.808,195.724 -436.808,436.803c-0,241.078 195.727,436.803 436.807,436.803c241.081,-0 436.807,-195.725 436.807,-436.803c0,-223.127 -167.662,-407.403 -383.767,-433.61c-17.387,-2.108 -35.087,-3.193 -53.039,-3.193Z" />
  </g>
</svg>