<?xml version="1.0" encoding="utf-8"?>
<svg width="24px" height="24px" viewBox="0 0 32 32" version="1.1" xmlns="http://www.w3.org/2000/svg">
<style>
    path {
        fill: black;
    }

    @media (prefers-color-scheme: dark) {
        path { fill: white; }
    }
</style>
<title>bars</title>
<path d="M2 8.749h28c0.414 0 0.75-0.336 0.75-0.75s-0.336-0.75-0.75-0.75v0h-28c-0.414 0-0.75 0.336-0.75 0.75s0.336 0.75 0.75 0.75v0zM30 15.25h-28c-0.414 0-0.75 0.336-0.75 0.75s0.336 0.75 0.75 0.75v0h28c0.414 0 0.75-0.336 0.75-0.75s-0.336-0.75-0.75-0.75v0zM30 23.25h-28c-0.414 0-0.75 0.336-0.75 0.75s0.336 0.75 0.75 0.75v0h28c0.414 0 0.75-0.336 0.75-0.75s-0.336-0.75-0.75-0.75v0z"></path>
</svg>