<?xml version="1.0" standalone="no"?>
<!DOCTYPE svg PUBLIC "-//W3C//DTD SVG 20010904//EN"
 "http://www.w3.org/TR/2001/REC-SVG-20010904/DTD/svg10.dtd">
<svg version="1.0" xmlns="http://www.w3.org/2000/svg"
 width="1200.000000pt" height="720.000000pt" viewBox="0 0 1200.000000 720.000000"
 preserveAspectRatio="xMidYMid meet">

<g transform="translate(0.000000,720.000000) scale(0.100000,-0.100000)"
fill="#000000" stroke="none">
<path d="M0 6921 l0 -278 1536 -922 1536 -921 459 2 459 3 -1995 1197 -1995
1197 0 -278z"/>
<path d="M1411 7196 c2 -2 766 -461 1697 -1020 l1692 -1015 0 1019 0 1020
-1697 0 c-933 0 -1694 -2 -1692 -4z"/>
<path d="M5280 5760 l0 -1440 -2640 0 -2640 0 0 -720 0 -720 2640 0 2640 0 0
-1440 0 -1440 720 0 720 0 0 1440 0 1440 2640 0 2640 0 0 720 0 720 -2640 0
-2640 0 0 1440 0 1440 -720 0 -720 0 0 -1440z"/>
<path d="M7200 6180 l0 -1019 1693 1015 c930 559 1694 1018 1696 1020 2 2
-759 4 -1692 4 l-1697 0 0 -1020z"/>
<path d="M9135 6039 l-1930 -1159 -3 -40 -3 -40 400 0 399 0 1994 1196 c1096
658 1995 1198 1997 1200 2 2 -205 4 -460 3 l-464 -1 -1930 -1159z"/>
<path d="M0 5580 l0 -780 1297 0 c713 0 1294 2 1292 4 -2 2 -586 353 -1296
780 l-1293 775 0 -779z"/>
<path d="M10702 5581 l-1292 -776 1292 -3 c710 -1 1293 -1 1295 1 2 2 2 352 1
778 l-3 775 -1293 -775z"/>
<path d="M0 1620 l0 -779 1293 775 c710 427 1294 778 1296 780 2 2 -579 4
-1292 4 l-1297 0 0 -780z"/>
<path d="M2002 1202 l-1992 -1197 461 -3 460 -2 1935 1160 1934 1161 0 40 0
39 -402 -1 -403 -1 -1993 -1196z"/>
<path d="M8011 2396 c2 -2 901 -542 1997 -1200 l1992 -1195 0 279 0 279 -1534
920 -1534 921 -463 0 c-254 0 -460 -2 -458 -4z"/>
<path d="M9411 2396 c2 -2 586 -353 1297 -780 l1292 -775 0 779 0 780 -1297 0
c-713 0 -1294 -2 -1292 -4z"/>
<path d="M3102 1021 l-1692 -1016 1692 -3 c930 -1 1693 -1 1695 1 2 2 2 460 1
1018 l-3 1015 -1693 -1015z"/>
<path d="M7200 1020 l0 -1020 1697 0 c933 0 1694 2 1692 4 -2 2 -766 461
-1696 1020 l-1693 1015 0 -1019z"/>
</g>
</svg>
